# xmcd
#
# Track frame offsets: 
#        182
#        13515
#        26722
#        38295
#        48790
#        62167
#        75357
#        86697
#        101382
#        114297
#
# Disc length: 1720 seconds
#
# Revision: 2
# Processed by: cddbd v1.5.2PL0 Copyright (c) Steve Scherf et al.
# Submitted via: ExactAudioCopyFreeDBPlugin 1.0
#
DISCID=6206b60a
DTITLE=Ben E. King - Stand By Me and Other Hits
DYEAR=1997
DGENRE=Rhythm and Blues
TTITLE0=Stand By Me
TTITLE1=Don't Play That Song
TTITLE2=I Who Have Nothing
TTITLE3=First Taste of Love
TTITLE4=Amore
TTITLE5=Spanish Harlem
TTITLE6=Ecstasy
TTITLE7=That's When it Hurts
TTITLE8=Seven Letters
TTITLE9=Supernatural Thing, Part 1
EXTD=
EXTT0=
EXTT1=
EXTT2=
EXTT3=
EXTT4=
EXTT5=
EXTT6=
EXTT7=
EXTT8=
EXTT9=
PLAYORDER=
